<svg width="27" height="27" viewBox="0 0 27 27" fill="none" xmlns="http://www.w3.org/2000/svg">
<path d="M1.22727 22.0909C0.552273 22.0909 0 22.6432 0 23.3182C0 23.9932 0.552273 24.5455 1.22727 24.5455H6.13636V27H13.5V19.6364H6.13636L6.13636 22.0909H1.22727ZM18.4091 17.1818C20.0045 17.1818 21.3545 16.1509 21.87 14.7273H27V12.2727H21.87C21.3668 10.8491 20.0168 9.81818 18.4091 9.81818H15.9545L15.9545 17.1818H18.4091ZM18.4091 27C20.0045 27 21.3545 25.9691 21.87 24.5455H27V22.0909H21.87C21.3545 20.6673 20.0045 19.6364 18.4091 19.6364H15.9545V27H18.4091ZM6.13636 2.45454H1.22727C0.552273 2.45454 0 3.00682 0 3.68182C0 4.35682 0.552273 4.90909 1.22727 4.90909H6.13636L6.13636 7.36364H13.5V0H6.13636V2.45454ZM1.22727 12.2727C0.552273 12.2727 0 12.825 0 13.5C0 14.175 0.552273 14.7273 1.22727 14.7273H6.13636V17.1818H13.5L13.5 9.81818H6.13636V12.2727H1.22727ZM18.4091 7.36364C20.0045 7.36364 21.3545 6.33273 21.87 4.90909H27V2.45454H21.87C21.3668 1.03091 20.0168 0 18.4091 0H15.9545V7.36364H18.4091Z" fill="#254682"/>
</svg>
