<svg width="36" height="29" viewBox="0 0 36 29" fill="none" xmlns="http://www.w3.org/2000/svg">
<path d="M17.92 0C20.4006 0 22.7315 0.380215 24.9127 1.14064C27.0939 1.90107 28.9971 2.93802 30.6223 4.25149C32.2475 5.56496 33.5305 7.09734 34.4715 8.84863C35.4124 10.5999 35.8828 12.4779 35.8828 14.4827C35.8828 16.4875 35.4124 18.3713 34.4715 20.1341C33.5305 21.8969 32.2475 23.435 30.6223 24.7485C28.9971 26.062 27.0939 27.0989 24.9127 27.8594C22.7315 28.6198 20.4006 29 17.92 29C15.4394 29 13.1157 28.6198 10.9487 27.8594C8.78181 27.0989 6.88574 26.062 5.26053 24.7485C3.63533 23.435 2.35227 21.8969 1.41136 20.1341C0.470454 18.3713 0 16.4875 0 14.4827C0 12.4779 0.470454 10.5999 1.41136 8.84863C2.35227 7.09734 3.63533 5.56496 5.26053 4.25149C6.88574 2.93802 8.78181 1.90107 10.9487 1.14064C13.1157 0.380215 15.4394 0 17.92 0ZM24.6775 6.32539H20.8711C20.1297 6.32539 19.4454 6.42908 18.8182 6.63647C18.1909 6.84386 17.642 7.12038 17.1716 7.46603C16.7011 7.81168 16.3376 8.20342 16.081 8.64124C15.8244 9.07906 15.6961 9.51688 15.6961 9.95471V11.7867H12.3173V15.3814H15.6961V22.64H20.1868V15.3814H23.5227V11.7867H20.1868V10.8534C20.1868 10.5769 20.3222 10.358 20.5931 10.1967C20.8639 10.0354 21.0992 9.95471 21.2987 9.95471H24.6775V6.32539Z" fill="white"/>
</svg>
