<svg width="56" height="56" viewBox="0 0 56 56" fill="none" xmlns="http://www.w3.org/2000/svg">
<g clip-path="url(#clip0_1231_1086)">
<path d="M28 4.66699C15.12 4.66699 4.66669 15.1203 4.66669 28.0003C4.66669 40.8803 15.12 51.3337 28 51.3337C40.88 51.3337 51.3334 40.8803 51.3334 28.0003C51.3334 15.1203 40.88 4.66699 28 4.66699ZM28 43.167C26.0634 43.167 24.5 41.6037 24.5 39.667H31.5C31.5 41.6037 29.9367 43.167 28 43.167ZM39.6667 37.3337H16.3334V35.0003L18.6667 32.667V26.577C18.6667 21.6303 21.07 17.4303 25.6667 16.3337V15.167C25.6667 13.837 26.67 12.8337 28 12.8337C29.33 12.8337 30.3334 13.837 30.3334 15.167V16.3337C34.93 17.4303 37.3334 21.6537 37.3334 26.577V32.667L39.6667 35.0003V37.3337Z" fill="#254682"/>
</g>
<defs>
<clipPath id="clip0_1231_1086">
<rect width="56" height="56" fill="white"/>
</clipPath>
</defs>
</svg>
