<svg width="56" height="56" viewBox="0 0 56 56" fill="none" xmlns="http://www.w3.org/2000/svg">
<g clip-path="url(#clip0_1231_1104)">
<path d="M44.66 30.1929C44.7533 29.4929 44.8 28.7696 44.8 27.9996C44.8 27.2529 44.7533 26.5063 44.6366 25.8063L49.3733 22.1196C49.7933 21.7929 49.91 21.1629 49.6533 20.6963L45.1733 12.9496C44.8933 12.4363 44.31 12.2729 43.7966 12.4363L38.22 14.6763C37.0533 13.7896 35.8166 13.0429 34.44 12.4829L33.6 6.55628C33.5066 5.99628 33.04 5.59961 32.48 5.59961H23.52C22.96 5.59961 22.5166 5.99628 22.4233 6.55628L21.5833 12.4829C20.2066 13.0429 18.9466 13.8129 17.8033 14.6763L12.2266 12.4363C11.7133 12.2496 11.13 12.4363 10.85 12.9496L6.3933 20.6963C6.1133 21.1863 6.20664 21.7929 6.6733 22.1196L11.41 25.8063C11.2933 26.5063 11.2 27.2763 11.2 27.9996C11.2 28.7229 11.2466 29.4929 11.3633 30.1929L6.62664 33.8796C6.20664 34.2063 6.08997 34.8363 6.34664 35.3029L10.8266 43.0496C11.1066 43.5629 11.69 43.7263 12.2033 43.5629L17.78 41.3229C18.9466 42.2096 20.1833 42.9563 21.56 43.5163L22.4 49.4429C22.5166 50.0029 22.96 50.3996 23.52 50.3996H32.48C33.04 50.3996 33.5066 50.0029 33.5766 49.4429L34.4166 43.5163C35.7933 42.9563 37.0533 42.2096 38.1966 41.3229L43.7733 43.5629C44.2866 43.7496 44.87 43.5629 45.15 43.0496L49.63 35.3029C49.91 34.7896 49.7933 34.2063 49.35 33.8796L44.66 30.1929ZM28 36.3996C23.38 36.3996 19.6 32.6196 19.6 27.9996C19.6 23.3796 23.38 19.5996 28 19.5996C32.62 19.5996 36.4 23.3796 36.4 27.9996C36.4 32.6196 32.62 36.3996 28 36.3996Z" fill="#254682"/>
</g>
<defs>
<clipPath id="clip0_1231_1104">
<rect width="56" height="56" fill="white"/>
</clipPath>
</defs>
</svg>
